HIERARCHY
ROOT Hips
{
  OFFSET -0.347901 96.7718 1.79791
  CHANNELS 6 Xposition Yposition Zposition Zrotation Xrotation Yrotation
  JOINT LeftUpLeg
  {
    OFFSET 8.91 -6.27 -2.145
    CHANNELS 3 Zrotation Xrotation Yrotation
    JOINT LeftUpLegRoll
    {
      OFFSET 0 -22.7323 0
      CHANNELS 3 Zrotation Xrotation Yrotation
      JOINT LeftLeg
      {
        OFFSET 0 -22.1464 0
        CHANNELS 3 Zrotation Xrotation Yrotation
        JOINT LeftLegRoll
        {
          OFFSET 0 -22.0919 0
          CHANNELS 3 Zrotation Xrotation Yrotation
          JOINT LeftFoot
          {
            OFFSET 0 -18.609 0
            CHANNELS 3 Zrotation Xrotation Yrotation
            JOINT LeftToeBase
            {
              OFFSET 0 -6.26232 12.9547
              CHANNELS 3 Zrotation Xrotation Yrotation
              End Site
              {
                OFFSET 0 0 5.96686
              }
            }
          }
        }
      }
    }
  }
  JOINT RightUpLeg
  {
    OFFSET -8.91 -6.27 -2.145
    CHANNELS 3 Zrotation Xrotation Yrotation
    JOINT RightUpLegRoll
    {
      OFFSET 0 -22.7323 0
      CHANNELS 3 Zrotation Xrotation Yrotation
      JOINT RightLeg
      {
        OFFSET 0 -22.1464 0
        CHANNELS 3 Zrotation Xrotation Yrotation
        JOINT RightLegRoll
        {
          OFFSET 0 -22.0919 0
          CHANNELS 3 Zrotation Xrotation Yrotation
          JOINT RightFoot
          {
            OFFSET 0 -18.609 0
            CHANNELS 3 Zrotation Xrotation Yrotation
            JOINT RightToeBase
            {
              OFFSET 0 -6.26232 12.9547
              CHANNELS 3 Zrotation Xrotation Yrotation
              End Site
              {
                OFFSET 0 0.000942417 5.96686
              }
            }
          }
        }
      }
    }
  }
  JOINT Spine
  {
    OFFSET 0 7.43174 -2.06162
    CHANNELS 3 Zrotation Xrotation Yrotation
    JOINT Spine1
    {
      OFFSET -1.68772e-005 12.1899 -1.41951
      CHANNELS 3 Zrotation Xrotation Yrotation
      JOINT Spine2
      {
        OFFSET 0 11.8846 -1.0903
        CHANNELS 3 Zrotation Xrotation Yrotation
        JOINT Spine3
        {
          OFFSET 1.84329e-005 10.5137 1.04001
          CHANNELS 3 Zrotation Xrotation Yrotation
          JOINT LeftShoulder
          {
            OFFSET 7 4.56855 2.0674
            CHANNELS 3 Zrotation Xrotation Yrotation
            JOINT LeftArm
            {
              OFFSET 10.7073 0 0
              CHANNELS 3 Zrotation Xrotation Yrotation
              JOINT LeftArmRoll
              {
                OFFSET 15.2612 0 0
                CHANNELS 3 Zrotation Xrotation Yrotation
                JOINT LeftForeArm
                {
                  OFFSET 12.0443 0 0
                  CHANNELS 3 Zrotation Xrotation Yrotation
                  JOINT LeftForeArmRoll
                  {
                    OFFSET 16.3277 0 0
                    CHANNELS 3 Zrotation Xrotation Yrotation
                    JOINT LeftHand
                    {
                      OFFSET 10.3694 0 0
                      CHANNELS 3 Zrotation Xrotation Yrotation
                      JOINT LeftHandThumb1
                      {
                        OFFSET 4.34876 -0.798502 4.28243
                        CHANNELS 3 Zrotation Xrotation Yrotation
                        JOINT LeftHandThumb2
                        {
                          OFFSET 2.51259 -0.536099 0.707454
                          CHANNELS 3 Zrotation Xrotation Yrotation
                          JOINT LeftHandThumb3
                          {
                            OFFSET 2.54314 0 0
                            CHANNELS 3 Zrotation Xrotation Yrotation
                            JOINT LeftHandThumb4
                            {
                              OFFSET 2.66675 0 0
                              CHANNELS 3 Zrotation Xrotation Yrotation
                              End Site
                              {
                                OFFSET 1 0 0
                              }
                            }
                          }
                        }
                      }
                      JOINT LeftHandIndex1
                      {
                        OFFSET 8.82198 0.199729 3.47167
                        CHANNELS 3 Zrotation Xrotation Yrotation
                        JOINT LeftHandIndex2
                        {
                          OFFSET 4.22532 0 -0.00026266
                          CHANNELS 3 Zrotation Xrotation Yrotation
                          JOINT LeftHandIndex3
                          {
                            OFFSET 2.65394 0 -0.000165163
                            CHANNELS 3 Zrotation Xrotation Yrotation
                            JOINT LeftHandIndex4
                            {
                              OFFSET 1.95822 0 -0.000122167
                              CHANNELS 3 Zrotation Xrotation Yrotation
                              End Site
                              {
                                OFFSET 1 0 0
                              }
                            }
                          }
                        }
                      }
                      JOINT LeftHandMiddle1
                      {
                        OFFSET 8.80988 0.50089 1.30468
                        CHANNELS 3 Zrotation Xrotation Yrotation
                        JOINT LeftHandMiddle2
                        {
                          OFFSET 4.86325 0 0
                          CHANNELS 3 Zrotation Xrotation Yrotation
                          JOINT LeftHandMiddle3
                          {
                            OFFSET 2.76524 0 0
                            CHANNELS 3 Zrotation Xrotation Yrotation
                            JOINT LeftHandMiddle4
                            {
                              OFFSET 2.00563 0 0
                              CHANNELS 3 Zrotation Xrotation Yrotation
                              End Site
                              {
                                OFFSET 1 0 0
                              }
                            }
                          }
                        }
                      }
                      JOINT LeftHandRing1
                      {
                        OFFSET 8.89376 0.37992 -0.793159
                        CHANNELS 3 Zrotation Xrotation Yrotation
                        JOINT LeftHandRing2
                        {
                          OFFSET 4.53776 0 -0.000282138
                          CHANNELS 3 Zrotation Xrotation Yrotation
                          JOINT LeftHandRing3
                          {
                            OFFSET 2.30453 0 -0.000143448
                            CHANNELS 3 Zrotation Xrotation Yrotation
                            JOINT LeftHandRing4
                            {
                              OFFSET 1.92335 0 -0.00012044
                              CHANNELS 3 Zrotation Xrotation Yrotation
                              End Site
                              {
                                OFFSET 1 0 0
                              }
                            }
                          }
                        }
                      }
                      JOINT LeftHandPinky1
                      {
                        OFFSET 8.88227 -0.313027 -2.49036
                        CHANNELS 3 Zrotation Xrotation Yrotation
                        JOINT LeftHandPinky2
                        {
                          OFFSET 3.0441 0 0
                          CHANNELS 3 Zrotation Xrotation Yrotation
                          JOINT LeftHandPinky3
                          {
                            OFFSET 1.9745 0 0
                            CHANNELS 3 Zrotation Xrotation Yrotation
                            JOINT LeftHandPinky4
                            {
                              OFFSET 1.66661 0 0
                              CHANNELS 3 Zrotation Xrotation Yrotation
                              End Site
                              {
                                OFFSET 1 0 0
                              }
                            }
                          }
                        }
                      }
                    }
                  }
                }
              }
            }
          }
          JOINT RightShoulder
          {
            OFFSET -7 4.56855 2.0673
            CHANNELS 3 Zrotation Xrotation Yrotation
            JOINT RightArm
            {
              OFFSET -10.7073 0 0
              CHANNELS 3 Zrotation Xrotation Yrotation
              JOINT RightArmRoll
              {
                OFFSET -15.2612 0 0
                CHANNELS 3 Zrotation Xrotation Yrotation
                JOINT RightForeArm
                {
                  OFFSET -12.0444 0 0
                  CHANNELS 3 Zrotation Xrotation Yrotation
                  JOINT RightForeArmRoll
                  {
                    OFFSET -16.3276 0 0
                    CHANNELS 3 Zrotation Xrotation Yrotation
                    JOINT RightHand
                    {
                      OFFSET -10.3694 0 0
                      CHANNELS 3 Zrotation Xrotation Yrotation
                      JOINT RightHandThumb1
                      {
                        OFFSET -4.34838 -0.798501 4.28282
                        CHANNELS 3 Zrotation Xrotation Yrotation
                        JOINT RightHandThumb2
                        {
                          OFFSET -2.51253 -0.536099 0.707679
                          CHANNELS 3 Zrotation Xrotation Yrotation
                          JOINT RightHandThumb3
                          {
                            OFFSET -2.54159 0 0.0888232
                            CHANNELS 3 Zrotation Xrotation Yrotation
                            JOINT RightHandThumb4
                            {
                              OFFSET -2.66512 0 0.0931403
                              CHANNELS 3 Zrotation Xrotation Yrotation
                              End Site
                              {
                                OFFSET 1 0 0
                              }
                            }
                          }
                        }
                      }
                      JOINT RightHandIndex1
                      {
                        OFFSET -8.82167 0.199732 3.47246
                        CHANNELS 3 Zrotation Xrotation Yrotation
                        JOINT RightHandIndex2
                        {
                          OFFSET -4.22532 0 0.000114599
                          CHANNELS 3 Zrotation Xrotation Yrotation
                          JOINT RightHandIndex3
                          {
                            OFFSET -2.65394 0 7.19639e-005
                            CHANNELS 3 Zrotation Xrotation Yrotation
                            JOINT RightHandIndex4
                            {
                              OFFSET -1.95822 0 5.30975e-005
                              CHANNELS 3 Zrotation Xrotation Yrotation
                              End Site
                              {
                                OFFSET 1 0 0
                              }
                            }
                          }
                        }
                      }
                      JOINT RightHandMiddle1
                      {
                        OFFSET -8.80976 0.500893 1.30547
                        CHANNELS 3 Zrotation Xrotation Yrotation
                        JOINT RightHandMiddle2
                        {
                          OFFSET -4.86325 0 0.000131881
                          CHANNELS 3 Zrotation Xrotation Yrotation
                          JOINT RightHandMiddle3
                          {
                            OFFSET -2.76524 0 7.49839e-005
                            CHANNELS 3 Zrotation Xrotation Yrotation
                            JOINT RightHandMiddle4
                            {
                              OFFSET -2.00563 0 5.4389e-005
                              CHANNELS 3 Zrotation Xrotation Yrotation
                              End Site
                              {
                                OFFSET 1 0 0
                              }
                            }
                          }
                        }
                      }
                      JOINT RightHandRing1
                      {
                        OFFSET -8.89383 0.379922 -0.792364
                        CHANNELS 3 Zrotation Xrotation Yrotation
                        JOINT RightHandRing2
                        {
                          OFFSET -4.53776 0 0.000123052
                          CHANNELS 3 Zrotation Xrotation Yrotation
                          JOINT RightHandRing3
                          {
                            OFFSET -2.30453 0 6.2493e-005
                            CHANNELS 3 Zrotation Xrotation Yrotation
                            JOINT RightHandRing4
                            {
                              OFFSET -1.92335 0 5.2155e-005
                              CHANNELS 3 Zrotation Xrotation Yrotation
                              End Site
                              {
                                OFFSET 1 0 0
                              }
                            }
                          }
                        }
                      }
                      JOINT RightHandPinky1
                      {
                        OFFSET -8.8825 -0.313025 -2.48956
                        CHANNELS 3 Zrotation Xrotation Yrotation
                        JOINT RightHandPinky2
                        {
                          OFFSET -3.0478 0 8.26486e-005
                          CHANNELS 3 Zrotation Xrotation Yrotation
                          JOINT RightHandPinky3
                          {
                            OFFSET -1.9769 0 5.36132e-005
                            CHANNELS 3 Zrotation Xrotation Yrotation
                            JOINT RightHandPinky4
                            {
                              OFFSET -1.66864 0 4.52455e-005
                              CHANNELS 3 Zrotation Xrotation Yrotation
                              End Site
                              {
                                OFFSET 1 0 0
                              }
                            }
                          }
                        }
                      }
                    }
                  }
                }
              }
            }
          }
          JOINT Neck
          {
            OFFSET 0 11.5156 1.94702
            CHANNELS 3 Zrotation Xrotation Yrotation
            JOINT Head
            {
              OFFSET -1.26215e-005 11.0733 1.65432
              CHANNELS 3 Zrotation Xrotation Yrotation
              End Site
              {
                OFFSET 0 17.7047 0
              }
            }
          }
        }
      }
    }
  }
}
MOTION
Frames:	5
Frame Time:	0.0416667
33.6324 94.6866 206.568 -4.06454 -11.1819 164.655 -7.52699 -37.9646 -5.79937 4.80535e-020 1.84149e-017 -0.300747 0.000699004 19.9227 8.58625 8.25701e-017 -7.56583e-016 12.4543 5.81865 0.62107 -0.0314905 4.91303e-007 -1.07674e-007 9.23291e-016 0.316028 2.56366 -1.9422 5.75357e-018 2.01379e-016 -3.29063 0.00264752 34.8852 -2.72192 6.69221e-018 2.16949e-016 -3.54537 6.28825 13.8163 -0.756848 2.02291 -27.9538 0.894463 -2.3219 0.767717 -0.364477 -2.74199 1.14741 -0.537667 -2.74038 1.15511 -0.529796 -2.73901 1.16235 -0.52145 -14.6001 0 3.98677 -55.8442 0.378733 -20.7995 -0 13.3808 0 -0.604049 -1.143 -27.8579 0 -1.746 0 -0.832091 -0.0188133 0.280548 0.000223847 6.7711e-005 0.00031712 -9.83015 -0.341591 1.97062 0.000468615 0 0 -0 0 0 -0.000299891 -1.04724e-005 -2.74072e-011 -0.000635687 0 0 -1.60709e-006 0 0 -0 0 0 9.63105e-006 3.36324e-007 1.99644 -2.52587e-005 0 0 -6.05691e-006 0 0 -0 0 0 -0.000157915 -5.51451e-006 1.99644 -2.83165e-006 0 0 1.33216e-005 0 0 -0 0 0 0.000488977 1.70754e-005 2 1.84134e-012 0 0 7.52352e-005 0 0 -0 0 0 8.24506 -2.97422e-016 -1.86759 75.2605 1.10186 -0.393577 1.50542e-015 12.1095 -1.59659e-016 -3.93306 14.3305 15.5239 -6.33184e-006 22.6808 -2.93581e-006 5.82945 -0.0266879 -0.504473 0.000323672 -2.9728e-005 0.000141467 10.4896 -0.364257 -1.96656 0.000199292 0 -0 0 0 -0 -5.41963e-006 1.89258e-007 9.1441e-015 0.000654996 0 -0 8.42007e-007 0 -0 0 0 -0 -7.43819e-006 2.59747e-007 1.70955e-014 5.06348e-005 0 -0 6.64766e-006 0 -0 0 0 -0 0.000214797 -7.50088e-006 4.76851e-007 2.49991e-005 0 -0 5.39726e-007 0 -0 0 0 -0 0.00141702 -4.94835e-005 6.11907e-010 1.76423e-005 0 -0 -2.38291e-005 0 -0 0 0 -0 5.74901 -12.1028 8.29626 -4.94294 -4.20814 10.0157 
33.9872 94.6181 202.032 -4.30766 -10.6806 167.641 -9.8655 -36.5552 -7.02106 1.05109e-019 -2.71567e-017 0.443521 1.67167e-007 23.6915 7.57073 6.07384e-017 -6.49985e-016 10.6771 5.30975 0.7355 -0.034109 5.79357e-007 -1.08033e-007 1.0924e-015 -1.50231 -1.13869 -3.0986 6.59705e-018 2.15045e-016 -3.51428 -8.88684e-007 44.7937 -2.34452 4.8532e-018 1.84469e-016 -3.0141 8.59045 22.3987 -1.70785 0.937798 -2.6225 0.0429131 -2.57822 0.847379 -0.397933 -2.7349 1.2413 -0.618057 -2.73291 1.25138 -0.606885 -2.73131 1.26078 -0.595069 -15.3823 0 1.83585 -55.1672 0.388952 -19.9063 -0 14.1074 0 -0.632746 -1.17983 -28.2073 0 -1.8129 0 -0.95181 -0.0207517 0.266587 0.000223847 6.7711e-005 0.00031712 -9.83015 -0.341591 1.97062 0.000468615 0 0 -0 0 0 -0.000299891 -1.04724e-005 -2.74072e-011 -0.000635687 0 0 -1.60709e-006 0 0 -0 0 0 9.63105e-006 3.36324e-007 1.99644 -2.52587e-005 0 0 -6.05691e-006 0 0 -0 0 0 -0.000157915 -5.51451e-006 1.99644 -2.83165e-006 0 0 1.33216e-005 0 0 -0 0 0 0.000488977 1.70754e-005 2 1.84134e-012 0 0 7.52352e-005 0 0 -0 0 0 6.90577 -2.53905e-016 -1.68264 75.7161 1.48886 -1.07793 1.60479e-015 12.8829 -1.81182e-016 -4.19436 13.236 17.7602 -6.41249e-006 21.2134 -2.90567e-006 6.79825 0.0762841 1.28435 0.000323672 -2.9728e-005 0.000141467 10.4896 -0.364257 -1.96656 0.000199292 0 -0 0 0 -0 -5.41963e-006 1.89258e-007 9.1441e-015 0.000654996 0 -0 8.42007e-007 0 -0 0 0 -0 -7.43819e-006 2.59747e-007 1.70955e-014 5.06348e-005 0 -0 6.64766e-006 0 -0 0 0 -0 0.000214797 -7.50088e-006 4.76851e-007 2.49991e-005 0 -0 5.39726e-007 0 -0 0 0 -0 0.00141702 -4.94835e-005 6.11907e-010 1.76423e-005 0 -0 -2.38291e-005 0 -0 0 0 -0 3.82179 -12.8477 7.26239 -4.52415 -2.85331 8.5832 
34.2441 94.7206 197.527 -4.74817 -9.47725 169.138 -11.6039 -33.9262 -7.82814 5.87337e-019 -6.36094e-017 1.03892 0.00210526 26.8887 7.14755 5.088e-017 -5.95141e-016 9.76712 4.7957 -1.96213 0.0812564 6.45652e-007 -1.08385e-007 1.22136e-015 -3.75485 -5.72403 -3.74426 3.07122e-018 1.47542e-016 -2.4103 0.0216031 55.5814 -2.1417 4.19481e-018 1.731e-016 -2.82806 6.99528 30.1059 -1.87698 -0.0626738 0.184395 -0.00301418 -2.84291 1.02057 -0.238641 -2.72209 1.49913 -0.416831 -2.71994 1.50796 -0.400186 -2.71834 1.51574 -0.382951 -16.4317 0 -2.88753 -54.1488 -0.92038 -15.2903 -0 14.2154 0 -0.657796 -1.11371 -30.5702 0 -1.78044 0 0.123785 -0.0225677 0.174659 0.000223847 6.7711e-005 0.00031712 -9.83015 -0.341591 1.97062 0.000468615 0 0 -0 0 0 -0.000299891 -1.04724e-005 -2.74072e-011 -0.000635687 0 0 -1.60709e-006 0 0 -0 0 0 9.63105e-006 3.36324e-007 1.99644 -2.52587e-005 0 0 -6.05691e-006 0 0 -0 0 0 -0.000157915 -5.51451e-006 1.99644 -2.83165e-006 0 0 1.33216e-005 0 0 -0 0 0 0.000488977 1.70754e-005 2 1.84134e-012 0 0 7.52352e-005 0 0 -0 0 0 6.02354 -2.4629e-016 -1.72142 75.452 2.1076 0.0292905 1.65837e-015 13.298 -1.93296e-016 -4.45512 13.5388 18.4083 -6.38234e-006 21.7655 -2.91671e-006 7.15684 0.181267 2.90198 0.000323672 -2.9728e-005 0.000141467 10.4896 -0.364257 -1.96656 0.000199292 0 -0 0 0 -0 -5.41963e-006 1.89258e-007 9.1441e-015 0.000654996 0 -0 8.42007e-007 0 -0 0 0 -0 -7.43819e-006 2.59747e-007 1.70955e-014 5.06348e-005 0 -0 6.64766e-006 0 -0 0 0 -0 0.000214797 -7.50088e-006 4.76851e-007 2.49991e-005 0 -0 5.39726e-007 0 -0 0 0 -0 0.00141702 -4.94835e-005 6.11907e-010 1.76423e-005 0 -0 -2.38291e-005 0 -0 0 0 -0 2.29643 -12.9898 6.58934 -4.52855 -2.06277 7.68249 
34.4166 94.9571 193.193 -5.24585 -7.90133 170.18 -13.2801 -30.2342 -8.89889 5.94118e-019 -6.46277e-017 1.05554 1.38389e-005 28.8982 7.23249 5.25725e-017 -6.05013e-016 9.93064 4.21885 -5.99066 0.220623 6.85015e-007 -1.08724e-007 1.29988e-015 -6.0399 -10.6127 -4.31191 5.19903e-019 5.90469e-017 -0.964392 0.0189786 65.7068 -1.33481 1.80661e-018 1.07207e-016 -1.75139 -0.355175 28.5764 0.0548439 0.00291259 9.13911e-008 -4.6458e-012 -3.18249 1.18662 -0.0958157 -2.74458 1.75627 -0.320652 -2.74222 1.76467 -0.297332 -2.74069 1.77155 -0.27342 -17.8049 0 -7.55241 -52.6181 -2.74928 -8.92512 -0 14.0949 0 -0.661079 -0.985911 -33.8454 0 -1.66678 0 1.5435 -0.0242586 0.0514238 0.000223847 6.7711e-005 0.00031712 -9.83015 -0.341591 1.97062 0.000468615 0 0 -0 0 0 -0.000299891 -1.04724e-005 -2.74072e-011 -0.000635687 0 0 -1.60709e-006 0 0 -0 0 0 9.63105e-006 3.36324e-007 1.99644 -2.52587e-005 0 0 -6.05691e-006 0 0 -0 0 0 -0.000157915 -5.51451e-006 1.99644 -2.83165e-006 0 0 1.33216e-005 0 0 -0 0 0 0.000488977 1.70754e-005 2 1.84134e-012 0 0 7.52352e-005 0 0 -0 0 0 6.24811 -3.12439e-016 -2.25621 74.6745 2.13995 2.19814 1.55286e-015 12.4793 -1.69899e-016 -4.19179 12.9484 18.1122 -6.43569e-006 20.7858 -2.89736e-006 6.0475 0.080795 1.55215 0.000323672 -2.9728e-005 0.000141467 10.4896 -0.364257 -1.96656 0.000199292 0 -0 0 0 -0 -5.41963e-006 1.89258e-007 9.1441e-015 0.000654996 0 -0 8.42007e-007 0 -0 0 0 -0 -7.43819e-006 2.59747e-007 1.70955e-014 5.06348e-005 0 -0 6.64766e-006 0 -0 0 0 -0 0.000214797 -7.50088e-006 4.76851e-007 2.49991e-005 0 -0 5.39726e-007 0 -0 0 0 -0 0.00141702 -4.94835e-005 6.11907e-010 1.76423e-005 0 -0 -2.38291e-005 0 -0 0 0 -0 1.51896 -12.3945 6.26605 -4.38127 -1.55208 7.23269 
34.6489 95.3291 188.94 -4.79108 -6.91203 171.106 -13.2532 -26.5023 -8.61889 6.52158e-019 -6.77026e-017 1.10577 -0.000395027 29.6735 6.94394 4.83992e-017 -5.80793e-016 9.52919 3.9991 -9.33103 0.326663 6.92105e-007 -1.09047e-007 1.31724e-015 -6.51337 -16.0648 -3.81182 1.60729e-019 -3.50275e-017 0.57209 -0.0278445 73.5866 -2.21343 5.53499e-018 1.97169e-016 -3.22206 -4.18642 19.7691 0.722551 0.00291259 9.1391e-008 -4.6458e-012 -3.30543 1.21171 -0.0124365 -2.42852 1.79741 -0.321215 -2.4263 1.80549 -0.295052 -2.42503 1.812 -0.268358 -20.3968 0 -11.2037 -50.1276 -4.5861 -1.98872 -0 14.1416 0 -0.609272 -0.814361 -36.8043 0 -1.45139 0 2.82645 -0.025822 -0.0480868 0.000223847 6.7711e-005 0.00031712 -9.83015 -0.341591 1.97062 0.000468615 0 0 -0 0 0 -0.000299891 -1.04724e-005 -2.74072e-011 -0.000635687 0 0 -1.60709e-006 0 0 -0 0 0 9.63105e-006 3.36324e-007 1.99644 -2.52587e-005 0 0 -6.05691e-006 0 0 -0 0 0 -0.000157915 -5.51451e-006 1.99644 -2.83165e-006 0 0 1.33216e-005 0 0 -0 0 0 0.000488977 1.70754e-005 2 1.84134e-012 0 0 7.52352e-005 0 0 -0 0 0 6.50174 -3.78435e-016 -2.79083 74.1958 1.7152 3.34659 1.42176e-015 11.4549 -1.42619e-016 -3.6977 11.3096 18.2393 -6.57404e-006 18.1855 -2.85119e-006 3.30478 -0.00711103 -0.321723 0.000323672 -2.9728e-005 0.000141467 10.4896 -0.364257 -1.96656 0.000199292 0 -0 0 0 -0 -5.41963e-006 1.89258e-007 9.1441e-015 0.000654996 0 -0 8.42007e-007 0 -0 0 0 -0 -7.43819e-006 2.59747e-007 1.70955e-014 5.06348e-005 0 -0 6.64766e-006 0 -0 0 0 -0 0.000214797 -7.50088e-006 4.76851e-007 2.49991e-005 0 -0 5.39726e-007 0 -0 0 0 -0 0.00141702 -4.94835e-005 6.11907e-010 1.76423e-005 0 -0 -2.38291e-005 0 -0 0 0 -0 1.05922 -11.758 6.19824 -4.21997 -0.165154 7.09598 
